<svg width="6278" height="807" viewBox="0 0 6278 807" fill="none" xmlns="http://www.w3.org/2000/svg">
<path d="M1300.71 408.57C1292.05 458.049 1257.88 482.789 1198.19 482.789H923.583L838.231 724H671.239L757.519 482.789H600.731C512.906 698.333 374.519 806.259 185.57 806.568C134.545 806.568 92.6423 796.518 59.8623 776.417C20.279 752.296 0.487305 716.114 0.487305 667.872C0.487305 630.144 13.1663 592.107 38.5244 553.761C102.538 456.967 220.206 408.57 391.527 408.57H459.252L602.587 0.831055H769.115L623.461 408.57H783.031L901.781 71.3389H1069.24L949.56 408.57H1300.71ZM432.812 482.789H419.359C358.438 482.789 303.702 498.406 255.15 529.64C199.177 565.512 171.19 612.208 171.19 669.728C171.19 709.62 188.972 729.566 224.535 729.566C269.066 729.566 313.134 698.333 356.737 635.865C389.208 589.169 414.566 538.144 432.812 482.789ZM1669.95 649.781C1655.1 699.26 1617.22 724 1556.3 724H1380.49C1330.39 724 1305.35 707.919 1305.35 675.758C1271.64 714.104 1230.2 733.277 1181.03 733.277C1144.85 733.277 1115.47 722.145 1092.89 699.879C1070.32 677.613 1059.03 648.544 1059.03 612.672C1059.03 548.04 1083.77 497.014 1133.25 459.596C1178.09 425.579 1233.6 408.57 1299.78 408.57H1564.65L1477.44 649.781H1669.95ZM1370.75 482.789H1268.24L1235.77 590.87C1233.91 597.674 1232.98 603.858 1232.98 609.425C1232.98 636.329 1259.27 649.781 1311.84 649.781L1370.75 482.789ZM2578.2 649.781C2569.23 699.26 2534.13 724 2472.9 724H2284.57C2269.73 724 2255.96 717.97 2243.29 705.909C2230.92 693.539 2224.73 679.623 2224.73 664.161C2224.73 659.213 2225.35 654.42 2226.59 649.781C2233.39 626.897 2243.59 593.653 2257.2 550.05L2100.41 681.324C2060.83 714.104 2026.97 730.494 1998.83 730.494C1956.77 730.494 1935.74 714.723 1935.74 683.18C1935.74 672.975 1938.06 661.842 1942.7 649.781L1979.81 550.05L1795.19 704.054C1779.42 717.351 1759.78 724 1736.28 724H1641.65L1752.51 408.57H1919.97L1867.55 557.008L2009.96 440.113C2045.52 410.735 2085.42 396.046 2129.64 396.046C2166.13 396.046 2184.37 410.117 2184.37 438.258C2184.37 446.298 2182.67 455.112 2179.27 464.698L2145.87 557.008L2284.57 439.186C2318.28 410.426 2355.7 396.046 2396.83 396.046C2435.79 396.046 2455.27 412.59 2455.27 445.68C2455.27 456.812 2452.8 469.182 2447.85 482.789L2388.01 649.781H2578.2ZM3776.83 226.271C3776.83 317.807 3713.59 396.355 3587.11 461.915C3502.68 506.137 3402.18 539.69 3285.59 562.574L3229 724H3059.69L3229 248.072H3396.92L3317.14 471.192C3377.13 457.586 3430.32 436.402 3476.71 407.643C3541.34 367.132 3574.89 319.972 3577.37 266.163C3578.91 231.528 3567.32 208.798 3542.58 197.975C3527.73 191.48 3500.98 188.233 3462.33 188.233H2988.26L3060.62 71.3389H3538.4C3608.29 71.3389 3661.64 79.9977 3698.44 97.3154C3750.7 121.746 3776.83 164.731 3776.83 226.271ZM4059.79 649.781C4052.06 676.995 4034.28 697.096 4006.44 710.084C3986.96 719.361 3966.09 724 3943.82 724H3765.23C3719.47 724 3696.58 708.383 3696.58 677.149C3696.58 669.109 3698.28 659.986 3701.68 649.781L3873.78 164.576H4037.99L3864.96 649.781H4059.79ZM4655.39 649.781C4640.55 699.26 4602.67 724 4541.75 724H4365.94C4315.84 724 4290.79 707.919 4290.79 675.758C4257.09 714.104 4215.65 733.277 4166.48 733.277C4130.3 733.277 4100.92 722.145 4078.34 699.879C4055.77 677.613 4044.48 648.544 4044.48 612.672C4044.48 548.04 4069.22 497.014 4118.7 459.596C4163.54 425.579 4219.05 408.57 4285.23 408.57H4550.1L4462.89 649.781H4655.39ZM4356.2 482.789H4253.69L4221.21 590.87C4219.36 597.674 4218.43 603.858 4218.43 609.425C4218.43 636.329 4244.72 649.781 4297.29 649.781L4356.2 482.789ZM5289.96 649.781C5281.92 676.995 5264.14 697.096 5236.62 710.084C5217.14 719.361 5196.26 724 5174 724H4988.92C4946.55 724 4925.37 710.084 4925.37 682.252C4925.37 672.975 4927.53 662.151 4931.86 649.781L4967.11 550.05L4807.54 685.035C4770.12 711.012 4739.35 724 4715.23 724H4629.88L4740.75 408.57H4908.2L4855.79 557.008L4997.26 441.041C5035.61 409.807 5077.2 394.809 5122.04 396.046C5152.35 397.283 5167.5 413.364 5167.5 444.288C5167.5 455.73 5165.03 468.564 5160.08 482.789L5100.24 649.781H5289.96ZM5867.48 649.781C5860.99 673.593 5846.14 692.302 5822.95 705.909C5802.23 717.97 5778.57 724 5751.98 724H5493.6C5343.31 724 5268.16 678.696 5268.16 588.087C5268.16 529.949 5293.83 484.335 5345.17 451.246C5389.39 422.796 5441.96 408.57 5502.88 408.57H5570.14C5609.41 408.57 5643.9 414.601 5673.58 426.661C5713.17 442.742 5733.89 467.172 5735.74 499.952C5737.29 533.041 5721.36 560.564 5687.96 582.521H5534.42L5584.52 482.789H5486.64L5448.61 594.581C5446.44 601.075 5445.36 606.951 5445.36 612.208C5445.36 637.257 5465.46 649.781 5505.66 649.781H5867.48ZM6277.54 649.781C6263 699.26 6224.35 724 6161.57 724H5925C5879.23 724 5856.35 707.919 5856.35 675.758C5856.35 667.717 5858.05 659.059 5861.45 649.781L5920.36 482.789H5844.29L5873.51 408.57C5927.63 394.654 5967.83 376.873 5994.12 355.226C6023.8 330.795 6055.5 286.573 6089.21 222.56H6179.66L6114.26 408.57H6233.93C6214.76 458.049 6175.8 482.789 6117.04 482.789H6086.42L6028.44 649.781H6277.54Z" fill="#7D1E11"/>
<path d="M1300.71 408.57C1292.05 458.049 1257.88 482.789 1198.19 482.789H923.583L838.231 724H671.239L757.519 482.789H600.731C512.906 698.333 374.519 806.259 185.57 806.568C134.545 806.568 92.6423 796.518 59.8623 776.417C20.279 752.296 0.487305 716.114 0.487305 667.872C0.487305 630.144 13.1663 592.107 38.5244 553.761C102.538 456.967 220.206 408.57 391.527 408.57H459.252L602.587 0.831055H769.115L623.461 408.57H783.031L901.781 71.3389H1069.24L949.56 408.57H1300.71ZM432.812 482.789H419.359C358.438 482.789 303.702 498.406 255.15 529.64C199.177 565.512 171.19 612.208 171.19 669.728C171.19 709.62 188.972 729.566 224.535 729.566C269.066 729.566 313.134 698.333 356.737 635.865C389.208 589.169 414.566 538.144 432.812 482.789ZM1669.95 649.781C1655.1 699.26 1617.22 724 1556.3 724H1380.49C1330.39 724 1305.35 707.919 1305.35 675.758C1271.64 714.104 1230.2 733.277 1181.03 733.277C1144.85 733.277 1115.47 722.145 1092.89 699.879C1070.32 677.613 1059.03 648.544 1059.03 612.672C1059.03 548.04 1083.77 497.014 1133.25 459.596C1178.09 425.579 1233.6 408.57 1299.78 408.57H1564.65L1477.44 649.781H1669.95ZM1370.75 482.789H1268.24L1235.77 590.87C1233.91 597.674 1232.98 603.858 1232.98 609.425C1232.98 636.329 1259.27 649.781 1311.84 649.781L1370.75 482.789ZM2578.2 649.781C2569.23 699.26 2534.13 724 2472.9 724H2284.57C2269.73 724 2255.96 717.97 2243.29 705.909C2230.92 693.539 2224.73 679.623 2224.73 664.161C2224.73 659.213 2225.35 654.42 2226.59 649.781C2233.39 626.897 2243.59 593.653 2257.2 550.05L2100.41 681.324C2060.83 714.104 2026.97 730.494 1998.83 730.494C1956.77 730.494 1935.74 714.723 1935.74 683.18C1935.74 672.975 1938.06 661.842 1942.7 649.781L1979.81 550.05L1795.19 704.054C1779.42 717.351 1759.78 724 1736.28 724H1641.65L1752.51 408.57H1919.97L1867.55 557.008L2009.96 440.113C2045.52 410.735 2085.42 396.046 2129.64 396.046C2166.13 396.046 2184.37 410.117 2184.37 438.258C2184.37 446.298 2182.67 455.112 2179.27 464.698L2145.87 557.008L2284.57 439.186C2318.28 410.426 2355.7 396.046 2396.83 396.046C2435.79 396.046 2455.27 412.59 2455.27 445.68C2455.27 456.812 2452.8 469.182 2447.85 482.789L2388.01 649.781H2578.2ZM3776.83 226.271C3776.83 317.807 3713.59 396.355 3587.11 461.915C3502.68 506.137 3402.18 539.69 3285.59 562.574L3229 724H3059.69L3229 248.072H3396.92L3317.14 471.192C3377.13 457.586 3430.32 436.402 3476.71 407.643C3541.34 367.132 3574.89 319.972 3577.37 266.163C3578.91 231.528 3567.32 208.798 3542.58 197.975C3527.73 191.48 3500.98 188.233 3462.33 188.233H2988.26L3060.62 71.3389H3538.4C3608.29 71.3389 3661.64 79.9977 3698.44 97.3154C3750.7 121.746 3776.83 164.731 3776.83 226.271ZM4059.79 649.781C4052.06 676.995 4034.28 697.096 4006.44 710.084C3986.96 719.361 3966.09 724 3943.82 724H3765.23C3719.47 724 3696.58 708.383 3696.58 677.149C3696.58 669.109 3698.28 659.986 3701.68 649.781L3873.78 164.576H4037.99L3864.96 649.781H4059.79ZM4655.39 649.781C4640.55 699.26 4602.67 724 4541.75 724H4365.94C4315.84 724 4290.79 707.919 4290.79 675.758C4257.09 714.104 4215.65 733.277 4166.48 733.277C4130.3 733.277 4100.92 722.145 4078.34 699.879C4055.77 677.613 4044.48 648.544 4044.48 612.672C4044.48 548.04 4069.22 497.014 4118.7 459.596C4163.54 425.579 4219.05 408.57 4285.23 408.57H4550.1L4462.89 649.781H4655.39ZM4356.2 482.789H4253.69L4221.21 590.87C4219.36 597.674 4218.43 603.858 4218.43 609.425C4218.43 636.329 4244.72 649.781 4297.29 649.781L4356.2 482.789ZM5289.96 649.781C5281.92 676.995 5264.14 697.096 5236.62 710.084C5217.14 719.361 5196.26 724 5174 724H4988.92C4946.55 724 4925.37 710.084 4925.37 682.252C4925.37 672.975 4927.53 662.151 4931.86 649.781L4967.11 550.05L4807.54 685.035C4770.12 711.012 4739.35 724 4715.23 724H4629.88L4740.75 408.57H4908.2L4855.79 557.008L4997.26 441.041C5035.61 409.807 5077.2 394.809 5122.04 396.046C5152.35 397.283 5167.5 413.364 5167.5 444.288C5167.5 455.73 5165.03 468.564 5160.08 482.789L5100.24 649.781H5289.96ZM5867.48 649.781C5860.99 673.593 5846.14 692.302 5822.95 705.909C5802.23 717.97 5778.57 724 5751.98 724H5493.6C5343.31 724 5268.16 678.696 5268.16 588.087C5268.16 529.949 5293.83 484.335 5345.17 451.246C5389.39 422.796 5441.96 408.57 5502.88 408.57H5570.14C5609.41 408.57 5643.9 414.601 5673.58 426.661C5713.17 442.742 5733.89 467.172 5735.74 499.952C5737.29 533.041 5721.36 560.564 5687.96 582.521H5534.42L5584.52 482.789H5486.64L5448.61 594.581C5446.44 601.075 5445.36 606.951 5445.36 612.208C5445.36 637.257 5465.46 649.781 5505.66 649.781H5867.48ZM6277.54 649.781C6263 699.26 6224.35 724 6161.57 724H5925C5879.23 724 5856.35 707.919 5856.35 675.758C5856.35 667.717 5858.05 659.059 5861.45 649.781L5920.36 482.789H5844.29L5873.51 408.57C5927.63 394.654 5967.83 376.873 5994.12 355.226C6023.8 330.795 6055.5 286.573 6089.21 222.56H6179.66L6114.26 408.57H6233.93C6214.76 458.049 6175.8 482.789 6117.04 482.789H6086.42L6028.44 649.781H6277.54Z" fill="#7D1E11"/>
</svg>
