<svg width="3053" height="1756" viewBox="0 0 3053 1756" fill="none" xmlns="http://www.w3.org/2000/svg">
<path d="M1325.09 899.299C1340.73 918.386 1383.05 964.605 1413.94 996.468M1878.06 584.807C1889.77 595.673 1903.15 615.107 1908.38 623.465C1974.44 756.367 1901.06 857.158 1856.11 890.941C1751.54 954.493 1702.51 928.219 1642.87 953.63C1610.99 967.213 1574.68 995.516 1560.28 1019.45C1525.16 1070.44 1469.69 1046.27 1446.34 1027.81C1434.42 1017.92 1429.13 1012.14 1413.94 996.468M1413.94 996.468C1394.08 952.678 1407.67 993.334 1398.26 957.81M1268.64 802.131C1252.96 760.686 1221.81 661.288 1222.64 595.255C1223.69 512.714 1196.51 392.559 1142.15 337.183C1087.8 281.807 1073.16 266.135 1067.93 259.866C1062.98 253.919 1033.56 238.572 1005.57 252.169C1002.5 253.662 999.344 255.078 995.972 255.637C968.941 260.119 922.375 255.209 918.452 203.445C913.225 134.487 955.038 129.262 956.084 129.262C957.129 129.262 987.444 120.904 1003.12 133.442C1018.8 145.98 1019.85 131.352 1016.71 127.173C1013.58 122.994 992.67 89.5591 1018.8 49.8557C1042.85 13.3274 1117.33 24.5565 1128.27 68.8971C1130.24 76.8788 1130.77 85.282 1130.72 93.5031C1130.64 103.856 1128.74 119.335 1122.29 138.666C1109.75 176.28 1194.42 254.642 1209.05 265.09C1223.69 275.538 1267.59 326.735 1360.63 337.183C1453.66 347.631 1634.5 343.452 1793.39 499.131M1219.51 794.817L1204.87 742.576C1133.09 791.682 981.381 899.09 948.766 935.868C907.999 981.841 896.5 1026.77 1001.03 996.468C1105.57 966.168 1745.31 671.527 2090.27 377.931C2134.17 337.879 2185.39 270.732 2039.05 322.555C1892.7 374.379 1803.15 415.893 1776.67 430.172L1816.39 461.517C1872.49 437.486 1960.65 411.366 1864.48 499.131C1744.26 608.838 1301.76 830.716 1222.64 852.282C1165.15 867.955 1132.74 872.134 1219.51 794.817Z" stroke="white" stroke-width="21" stroke-linecap="round"/>
<path d="M1426.72 738.709L1397.49 752.294C1492.71 530.758 1697.51 513.69 1788 532.848L1761.9 549.568C1557.24 542.88 1453.17 672.876 1426.72 738.709Z" fill="white"/>
<path d="M1381.82 849.478L1404.79 839.028C1399.13 877.023 1398.19 963.811 1425.92 996.864L1429.85 1001C1428.48 999.737 1427.18 998.355 1425.92 996.864L1389.13 958.156C1383.56 944.571 1374.31 903.817 1381.82 849.478Z" fill="white"/>
<path d="M1426.72 738.709L1397.49 752.294C1492.71 530.758 1697.51 513.69 1788 532.848L1761.9 549.568C1557.24 542.88 1453.17 672.876 1426.72 738.709Z" stroke="white"/>
<path d="M1381.82 849.478L1404.79 839.028C1399.13 877.023 1398.19 963.811 1425.92 996.864L1429.85 1001C1428.48 999.737 1427.18 998.355 1425.92 996.864L1389.13 958.156C1383.56 944.571 1374.31 903.817 1381.82 849.478Z" stroke="white"/>
<path d="M1855.3 578.836L1873.08 594.513L1894 586.152L1873.08 565.249L1855.3 578.836Z" fill="white"/>
<path d="M1302.02 890.285L1337.58 930L1357.45 921.639L1322.94 879.834L1302.02 890.285Z" fill="white"/>
<path d="M1262.28 818.171L1256 797.268L1272.73 783.682L1282.15 808.765L1262.28 818.171Z" fill="white"/>
<path d="M1799.87 523.444L1785.23 505.677L1798.82 490L1816.6 509.857L1799.87 523.444Z" fill="white"/>
<path d="M1855.3 578.836L1873.08 594.513L1894 586.152L1873.08 565.249L1855.3 578.836Z" stroke="white"/>
<path d="M1302.02 890.285L1337.58 930L1357.45 921.639L1322.94 879.834L1302.02 890.285Z" stroke="white"/>
<path d="M1262.28 818.171L1256 797.268L1272.73 783.682L1282.15 808.765L1262.28 818.171Z" stroke="white"/>
<path d="M1799.87 523.444L1785.23 505.677L1798.82 490L1816.6 509.857L1799.87 523.444Z" stroke="white"/>
<path d="M1784.9 681.201C1792.6 687.695 1795.99 698.938 1794.13 712.881C1792.28 726.757 1785.26 742.564 1773.27 756.793C1761.28 771.022 1746.89 780.621 1733.53 784.799C1720.11 788.997 1708.45 787.567 1700.74 781.074C1693.04 774.58 1689.65 763.337 1691.51 749.393C1693.36 735.518 1700.38 719.711 1712.37 705.482C1724.36 691.252 1738.75 681.654 1752.11 677.476C1765.54 673.278 1777.19 674.708 1784.9 681.201Z" stroke="white" stroke-width="10"/>
<path d="M1192 322C1343.96 530.066 1233.92 492.426 1323 781" stroke="white" stroke-width="10" stroke-linecap="round"/>
<path d="M1116 313C1120.87 293.821 1142.28 253.369 1189 245" stroke="white" stroke-width="11"/>
<path d="M1014.79 946.121C1022.83 958.85 1077.31 935.497 1103.55 922.23C1109.04 919.176 1119.01 911.479 1115 905.114C1110.98 898.75 1099 903.266 1093.51 906.319C1089.97 908.551 1082.01 911.601 1078.43 905.944C1075.31 900.994 1081.23 894.703 1084.58 892.176C1089.88 888.828 1099.37 880.364 1094.91 873.293C1090.44 866.221 1079.46 872.328 1074.53 876.266C1051.27 894.247 1006.76 933.392 1014.79 946.121Z" fill="white" stroke="white"/>
<path d="M2048.69 364.605C2041.51 351.376 1985.61 371.099 1958.56 382.613C1952.88 385.3 1942.42 392.326 1946.01 398.94C1949.6 405.555 1961.85 401.836 1967.53 399.15C1971.21 397.155 1979.36 394.635 1982.55 400.514C1985.34 405.659 1979.02 411.547 1975.51 413.849C1970 416.841 1959.97 424.663 1963.96 432.013C1967.95 439.362 1979.31 433.99 1984.49 430.385C2008.88 413.97 2055.87 377.834 2048.69 364.605Z" fill="white" stroke="white"/>
<path d="M644.809 1306.59C640.707 1330.02 624.521 1341.74 596.249 1341.74H466.171L425.741 1456H346.64L387.509 1341.74H313.241C271.64 1443.84 206.088 1494.96 116.586 1495.11C92.416 1495.11 72.5674 1490.35 57.04 1480.83C38.29 1469.4 28.915 1452.26 28.915 1429.41C28.915 1411.54 34.9209 1393.52 46.9326 1375.36C77.2549 1329.51 132.992 1306.59 214.145 1306.59H246.225L314.12 1113.45H393.002L324.008 1306.59H399.594L455.844 1146.84H535.165L478.476 1306.59H644.809ZM233.7 1341.74H227.328C198.471 1341.74 172.543 1349.14 149.545 1363.93C123.031 1380.93 109.774 1403.05 109.774 1430.29C109.774 1449.19 118.197 1458.64 135.043 1458.64C156.137 1458.64 177.011 1443.84 197.665 1414.25C213.046 1392.13 225.058 1367.96 233.7 1341.74ZM819.711 1420.84C812.68 1444.28 794.735 1456 765.878 1456H682.602C658.871 1456 647.006 1448.38 647.006 1433.15C631.039 1451.31 611.41 1460.39 588.119 1460.39C570.98 1460.39 557.064 1455.12 546.371 1444.57C535.678 1434.03 530.331 1420.26 530.331 1403.27C530.331 1372.65 542.05 1348.48 565.487 1330.76C586.728 1314.64 613.021 1306.59 644.369 1306.59H769.833L728.524 1420.84H819.711ZM677.987 1341.74H629.428L614.047 1392.94C613.168 1396.16 612.729 1399.09 612.729 1401.73C612.729 1414.47 625.18 1420.84 650.082 1420.84L677.987 1341.74ZM1249.94 1420.84C1245.69 1444.28 1229.06 1456 1200.06 1456H1110.85C1103.82 1456 1097.3 1453.14 1091.29 1447.43C1085.43 1441.57 1082.5 1434.98 1082.5 1427.66C1082.5 1425.31 1082.8 1423.04 1083.38 1420.84C1086.61 1410 1091.44 1394.26 1097.88 1373.6L1023.62 1435.79C1004.87 1451.31 988.827 1459.08 975.497 1459.08C955.575 1459.08 945.614 1451.61 945.614 1436.66C945.614 1431.83 946.713 1426.56 948.91 1420.84L966.488 1373.6L879.037 1446.55C871.566 1452.85 862.265 1456 851.132 1456H806.308L858.822 1306.59H938.144L913.314 1376.9L980.771 1321.53C997.616 1307.61 1016.51 1300.65 1037.46 1300.65C1054.75 1300.65 1063.39 1307.32 1063.39 1320.65C1063.39 1324.46 1062.58 1328.63 1060.97 1333.17L1045.15 1376.9L1110.85 1321.09C1126.82 1307.46 1144.54 1300.65 1164.02 1300.65C1182.48 1300.65 1191.71 1308.49 1191.71 1324.16C1191.71 1329.44 1190.54 1335.3 1188.19 1341.74L1159.85 1420.84H1249.94ZM1817.71 1220.23C1817.71 1263.59 1787.75 1300.8 1727.84 1331.85C1687.85 1352.8 1640.24 1368.7 1585.02 1379.54L1558.21 1456H1478.01L1558.21 1230.56H1637.75L1599.96 1336.25C1628.38 1329.8 1653.57 1319.77 1675.55 1306.15C1706.16 1286.96 1722.05 1264.62 1723.23 1239.13C1723.96 1222.72 1718.47 1211.96 1706.75 1206.83C1699.72 1203.75 1687.04 1202.22 1668.73 1202.22H1444.17L1478.45 1146.84H1704.77C1737.88 1146.84 1763.14 1150.95 1780.58 1159.15C1805.33 1170.72 1817.71 1191.08 1817.71 1220.23ZM1951.74 1420.84C1948.08 1433.73 1939.66 1443.26 1926.47 1449.41C1917.25 1453.8 1907.36 1456 1896.81 1456H1812.22C1790.54 1456 1779.7 1448.6 1779.7 1433.81C1779.7 1430 1780.5 1425.68 1782.11 1420.84L1863.63 1191.01H1941.42L1859.46 1420.84H1951.74ZM2233.87 1420.84C2226.84 1444.28 2208.9 1456 2180.04 1456H2096.76C2073.03 1456 2061.17 1448.38 2061.17 1433.15C2045.2 1451.31 2025.57 1460.39 2002.28 1460.39C1985.14 1460.39 1971.22 1455.12 1960.53 1444.57C1949.84 1434.03 1944.49 1420.26 1944.49 1403.27C1944.49 1372.65 1956.21 1348.48 1979.65 1330.76C2000.89 1314.64 2027.18 1306.59 2058.53 1306.59H2183.99L2142.68 1420.84H2233.87ZM2092.15 1341.74H2043.59L2028.21 1392.94C2027.33 1396.16 2026.89 1399.09 2026.89 1401.73C2026.89 1414.47 2039.34 1420.84 2064.24 1420.84L2092.15 1341.74ZM2534.46 1420.84C2530.65 1433.73 2522.23 1443.26 2509.19 1449.41C2499.96 1453.8 2490.07 1456 2479.53 1456H2391.85C2371.79 1456 2361.75 1449.41 2361.75 1436.22C2361.75 1431.83 2362.78 1426.7 2364.83 1420.84L2381.53 1373.6L2305.94 1437.54C2288.22 1449.85 2273.64 1456 2262.22 1456H2221.79L2274.3 1306.59H2353.62L2328.79 1376.9L2395.81 1321.97C2413.97 1307.17 2433.68 1300.07 2454.92 1300.65C2469.27 1301.24 2476.45 1308.86 2476.45 1323.5C2476.45 1328.92 2475.28 1335 2472.93 1341.74L2444.59 1420.84H2534.46ZM2808.02 1420.84C2804.94 1432.12 2797.91 1440.99 2786.92 1447.43C2777.11 1453.14 2765.9 1456 2753.3 1456H2630.92C2559.73 1456 2524.13 1434.54 2524.13 1391.62C2524.13 1364.08 2536.29 1342.47 2560.6 1326.8C2581.55 1313.32 2606.45 1306.59 2635.31 1306.59H2667.17C2685.78 1306.59 2702.11 1309.44 2716.17 1315.16C2734.92 1322.77 2744.74 1334.34 2745.61 1349.87C2746.35 1365.55 2738.8 1378.58 2722.98 1388.98H2650.25L2673.98 1341.74H2627.62L2609.6 1394.7C2608.58 1397.77 2608.07 1400.56 2608.07 1403.05C2608.07 1414.91 2617.59 1420.84 2636.63 1420.84H2808.02ZM3002.25 1420.84C2995.37 1444.28 2977.06 1456 2947.32 1456H2835.26C2813.58 1456 2802.74 1448.38 2802.74 1433.15C2802.74 1429.34 2803.55 1425.24 2805.16 1420.84L2833.07 1341.74H2797.03L2810.87 1306.59C2836.51 1299.99 2855.55 1291.57 2868 1281.32C2882.06 1269.75 2897.08 1248.8 2913.05 1218.48H2955.89L2924.91 1306.59H2981.6C2972.52 1330.02 2954.06 1341.74 2926.23 1341.74H2911.73L2884.26 1420.84H3002.25Z" fill="white"/>
</svg>
