<svg width="602" height="602" viewBox="0 0 602 602" fill="none" xmlns="http://www.w3.org/2000/svg">
<path d="M206.5 473C213.985 482.134 234.224 504.252 249 519.5M471 322.5C476.6 327.7 483 337 485.5 341C517.1 404.6 482 452.833 460.5 469C410.482 499.413 387.028 486.84 358.5 499C343.251 505.5 325.885 519.044 319 530.5C302.2 554.9 275.667 543.333 264.5 534.5C258.797 529.767 256.265 526.997 249 519.5M249 519.5C239.5 498.544 246 518 241.5 501M179.5 426.5C172 406.667 157.1 359.1 157.5 327.5C158 288 145 230.5 119 204C93 177.5 86 170 83.5 167C81.2746 164.33 68.7487 157.697 56.1492 162.268C52.9351 163.433 49.8109 164.979 46.4107 165.337C33.3034 166.714 13.753 163.139 12 140C9.49997 107 29.5 104.5 30 104.5C30.5 104.5 45 100.5 52.5 106.5C60 112.5 60.5 105.5 59 103.5C57.5 101.5 47.5 85.5 60 66.5C70.3385 50.7854 100.173 53.5406 109.899 69.6736C114.141 76.7112 114.114 85.6763 113.069 93.8271C112.529 98.0464 111.448 103.155 109.5 109C103.5 127 144 164.5 151 169.5C158 174.5 179 199 223.5 204C268 209 354.5 207 430.5 281.5M156 423L149 398C114.667 421.5 42.1 472.9 26.5 490.5C6.99997 512.5 1.49997 534 51.5 519.5C101.5 505 407.5 364 572.5 223.5C593.5 204.333 618 172.2 548 197C478 221.8 435.167 241.667 422.5 248.5L441.5 263.5C468.333 252 510.5 239.5 464.5 281.5C407 334 195.342 440.18 157.5 450.5C130 458 114.5 460 156 423Z" stroke="white" stroke-width="10" stroke-linecap="round"/>
<path d="M255 396L241 402.5C286.6 296.5 384.667 288.333 428 297.5L415.5 305.5C317.5 302.3 267.667 364.5 255 396Z" fill="white"/>
<path d="M233.5 449L244.5 444C241.789 462.18 241.336 503.706 254.618 519.521L256.5 521.5C255.844 520.896 255.217 520.235 254.618 519.521L237 501C234.333 494.5 229.9 475 233.5 449Z" fill="white"/>
<path d="M241 402.5L255 396C267.667 364.5 317.5 302.3 415.5 305.5L428 297.5C384.667 288.333 286.6 296.5 241 402.5ZM233.5 449L244.5 444C241.667 463 241.3 507.5 256.5 521.5L237 501C234.333 494.5 229.9 475 233.5 449Z" stroke="white"/>
<path d="M460 319.5L468.5 327L478.5 323L468.5 313L460 319.5Z" fill="white"/>
<path d="M195.5 468.5L212.5 487.5L222 483.5L205.5 463.5L195.5 468.5Z" fill="white"/>
<path d="M176.5 434L173.5 424L181.5 417.5L186 429.5L176.5 434Z" fill="white"/>
<path d="M433.5 293L426.5 284.5L433 277L441.5 286.5L433.5 293Z" fill="white"/>
<path d="M460 319.5L468.5 327L478.5 323L468.5 313L460 319.5Z" stroke="white"/>
<path d="M195.5 468.5L212.5 487.5L222 483.5L205.5 463.5L195.5 468.5Z" stroke="white"/>
<path d="M176.5 434L173.5 424L181.5 417.5L186 429.5L176.5 434Z" stroke="white"/>
<path d="M433.5 293L426.5 284.5L433 277L441.5 286.5L433.5 293Z" stroke="white"/>
<path d="M426.367 368.562C430.015 371.636 431.632 376.97 430.745 383.618C429.863 390.231 426.515 397.773 420.792 404.566C415.068 411.359 408.203 415.937 401.835 417.928C395.434 419.93 389.903 419.241 386.255 416.167C382.607 413.093 380.99 407.758 381.877 401.111C382.759 394.497 386.107 386.955 391.83 380.163C397.554 373.37 404.419 368.792 410.787 366.801C417.188 364.799 422.719 365.488 426.367 368.562Z" stroke="white" stroke-width="5"/>
<path d="M143 196.5C215.5 296 163 278 205.5 416" stroke="white" stroke-width="5" stroke-linecap="round"/>
<path d="M106.5 192.5C108.833 183.333 119.1 164 141.5 160" stroke="white" stroke-width="11"/>
<path d="M58.0808 495.195C61.9243 501.283 87.9855 490.113 100.536 483.767C103.161 482.307 107.933 478.625 106.011 475.58C104.089 472.536 98.357 474.696 95.7313 476.157C94.0401 477.224 90.2306 478.683 88.5224 475.977C87.0277 473.61 89.8585 470.601 91.4607 469.392C93.9975 467.791 98.5373 463.742 96.402 460.36C94.2668 456.977 89.0152 459.898 86.6564 461.782C75.5297 470.383 54.2373 489.106 58.0808 495.195Z" fill="white" stroke="white"/>
<path d="M552.614 217.045C549.179 210.718 522.44 220.151 509.5 225.659C506.784 226.944 501.782 230.305 503.499 233.468C505.217 236.632 511.078 234.853 513.794 233.569C515.552 232.614 519.449 231.409 520.976 234.221C522.312 236.682 519.289 239.499 517.611 240.599C514.975 242.031 510.179 245.772 512.087 249.288C513.996 252.803 519.428 250.233 521.905 248.509C533.573 240.658 556.049 223.373 552.614 217.045Z" fill="white" stroke="white"/>
</svg>
