<?xml version="1.0" encoding="utf-8"?>
<!-- Generator: Adobe Illustrator 27.3.1, SVG Export Plug-In . SVG Version: 6.00 Build 0)  -->
<svg version="1.1" xmlns="http://www.w3.org/2000/svg" xmlns:xlink="http://www.w3.org/1999/xlink" x="0px" y="0px"
	 viewBox="0 0 2048 1556" style="enable-background:new 0 0 2048 1556;" xml:space="preserve">
<style type="text/css">
	.st0{display:none;}
	.st1{display:inline;fill:none;stroke:#7D1E11;stroke-width:18;stroke-miterlimit:10;}
	.st2{display:inline;fill:none;stroke:#7D1E11;stroke-width:17;stroke-miterlimit:10;}
	.st3{display:inline;fill:none;stroke:#7D1E11;stroke-width:10;stroke-miterlimit:10;}
	.st4{display:inline;fill:none;stroke:#7D1E11;stroke-width:12;stroke-miterlimit:10;}
	.st5{display:inline;fill:#7D1E11;stroke:#7D1E11;stroke-width:8;stroke-miterlimit:10;}
	.st6{display:inline;fill:#7D1E11;}
	.st7{fill:none;stroke:#000000;stroke-width:18;stroke-miterlimit:10;}
	.st8{fill:none;stroke:#000000;stroke-width:17;stroke-miterlimit:10;}
	.st9{fill:none;stroke:#000000;stroke-width:14;stroke-miterlimit:10;}
	.st10{fill:none;stroke:#000000;stroke-width:10;stroke-miterlimit:10;}
	.st11{fill:none;stroke:#000000;stroke-width:12;stroke-miterlimit:10;}
	.st12{stroke:#000000;stroke-width:8;stroke-miterlimit:10;}
	.st13{display:inline;fill:none;stroke:#000000;stroke-width:20;stroke-miterlimit:10;}
	.st14{display:inline;fill:none;stroke:#000000;stroke-width:17;stroke-miterlimit:10;}
	.st15{display:inline;fill:none;stroke:#000000;stroke-width:18;stroke-miterlimit:10;}
	.st16{display:inline;fill:none;stroke:#000000;stroke-width:12;stroke-miterlimit:10;}
	.st17{display:inline;stroke:#000000;stroke-width:20;stroke-miterlimit:10;}
	.st18{display:inline;stroke:#000000;stroke-width:10;stroke-miterlimit:10;}
	.st19{display:inline;}
</style>
<g id="red" class="st0">
	<path class="st1" d="M853.68,1068.37c0,0,45.46,57.56,76.76,83.64c1.91,1.59,3.72,3.28,5.39,5.11
		c10.87,12.01,61.48,62.52,106.23,16.47c1.41-1.45,2.71-3,3.94-4.61c8.55-11.27,58.26-71.45,141.67-67.1c4.5,0.23,9-0.13,13.4-1.08
		c29.53-6.38,134.21-36.26,149.49-141.71c0,0,17.47-82.89-39.73-144.21l-3.27-3.64"/>
	<path class="st1" d="M1239.89,742.56c0,0-57.16-51.1-87.08-67.25c-0.94-0.51-1.87-1.03-2.78-1.6
		c-10.48-6.52-89.33-53.56-186.87-56.11c0,0-103.72,0.67-153.56-33.37c-0.77-0.53-1.54-1.04-2.34-1.52
		c-5.88-3.56-35.26-21.91-67.61-51.92c-15.06-13.97-30.76-30.46-45.04-49.17c0,0-3.67-5.05-6.2-13.29
		c-3.27-10.63-2.68-22.07,1.27-32.47c5.54-14.59,16.57-55.33-23.5-74.81c0,0-51.57-24.68-71.4,27.82
		c-1.72,4.56-2.72,9.36-3.02,14.22c-0.03,0.49-0.06,0.99-0.08,1.51c-0.58,12.34,3.67,24.31,11.24,34.07
		c1.79,2.3,2.96,4.79,1.21,6.12c-3.83,2.91-5.37-1.6-7.36-3.88c-2-2.28-10.79-11.99-24.78-10.05s-32.2,5.88-47.27,20.95
		c-15.07,15.07-12.67,67.82,11.99,83.24c24.66,15.41,55.49,2.4,55.49,2.4s29.46-12.33,45.9,2.4c16.44,14.73,40.08,39.39,40.08,39.39
		s2.24,2.26,5.97,6.38c15.29,16.91,55.56,65.19,68.14,117.57c0.36,1.52,0.77,3.01,1.27,4.49c2.82,8.39,13.19,41.32,14.37,75.03
		c0,0,0.82,112.24,34.52,195.33c1.04,2.57,4.65,11.01,4.65,11.01"/>
	<path class="st1" d="M739.65,530.77c0,0-48.17,18.73-55.51,54.83"/>
	<path class="st2" d="M907.62,1037.31"/>
	<path class="st2" d="M929.27,1151.01c0,0-32.03-52.82-21.68-113.54"/>
	<path class="st3" d="M1154.18,938.56c-2.58,13.94-5.62,50.45,37.27,36.23c3.31-1.1,6.47-2.59,9.46-4.38
		c11.26-6.73,36.59-25.29,38.85-57.04c0,0,5.24-49.4-48.83-20.58c-0.56,0.3-1.14,0.59-1.71,0.87c-3.89,1.88-22.9,12.06-32.38,35.62
		C1155.63,932.27,1154.76,935.39,1154.18,938.56z"/>
	<path class="st3" d="M744.1,593.78c0,0,29.47,34.74,45.47,67.52c0.65,1.34,1.23,2.7,1.76,4.09c3.99,10.47,19.75,37.4,22.47,74.82
		c2.73,37.42,4.36,54.93,4.27,68.87c-0.01,2.45,0.11,4.89,0.44,7.33c2.18,16.21-0.6,22.45,12.19,83.19
		c12.79,60.74,22.87,73.52,22.87,73.52"/>
	<path class="st4" d="M757.02,940.93c0,0-169.21,109.04-200.57,150.05c0,0-93.17,83.08,21.01,60.04s556.62-237.47,894.71-500.54
		c0,0,112.55-90.43-13.61-61.58c-11.46,2.62-22.67,6.29-33.49,10.9c-47.74,20.35-195.95,83.5-195.95,83.5"/>
	<path class="st4" d="M774.08,978.02"/>
	<path class="st4" d="M780.34,973.39"/>
	<path class="st4" d="M769.05,982.09c0,0-123.77,96.55,26.26,41.75c0,0,269.92-99.34,509.01-288.42c0,0,86.32-79.47-46.59-28.77
		l-3.36,1.43"/>
	<path class="st5" d="M655.33,1049.41c0,0-75.87,55.04-68.96,63.48c2.26,2.76,28.33-7.89,49.54-16.22c0.77-0.3,1.54-0.56,2.34-0.78
		c10.06-2.8,80.04-22.54,41.95-20.57c-1.19,0.06-2.39,0.23-3.56,0.48c-6.6,1.4-31.38,5.13-12.77-22.56c0.96-1.43,1.8-2.94,2.44-4.54
		C668.04,1044.37,669.29,1038.03,655.33,1049.41z"/>
	<path class="st5" d="M1360.32,652.61c0.03-1.34,134.38-51.75,75.19-3.34c-56.71,46.39-74.15,66.76-56.18,34.6
		c0,0,15.07-20.72-10.79-23.29S1353.15,655.2,1360.32,652.61z"/>
	<path class="st2" d="M1286.46,803.24"/>
	<path class="st2" d="M915.06,940.44c0,0,7.4-14.8,10.54-19.45c45.19-66.96,144.43-156.95,266.32-154.95
		c9.18,0.15,14.39,0.94,14.39,0.94"/>
	<circle class="st6" cx="757.04" cy="940.92" r="6"/>
	<circle class="st6" cx="769.19" cy="981.97" r="6"/>
	<circle class="st6" cx="1254.07" cy="708.18" r="6"/>
	<circle class="st6" cx="1228.95" cy="683.37" r="6"/>
	<circle class="st6" cx="807.21" cy="989.29" r="9"/>
	<circle class="st6" cx="1239.89" cy="742.55" r="9"/>
	<circle class="st6" cx="1307.83" cy="811.55" r="9"/>
	<circle class="st6" cx="907.52" cy="1037.89" r="8.5"/>
	<circle class="st6" cx="854.14" cy="1068.94" r="9.05"/>
	<circle class="st6" cx="915.06" cy="940.39" r="8.5"/>
	<circle class="st6" cx="1206.61" cy="767.04" r="8.5"/>
	<circle class="st6" cx="744.3" cy="594.02" r="5"/>
	<circle class="st6" cx="853.58" cy="973.13" r="5"/>
</g>
<g id="logo_black">
	<path class="st7" d="M871,1073.32c0,0,45.46,57.56,76.76,83.64c1.91,1.59,3.72,3.28,5.39,5.11
		c10.87,12.01,61.48,62.52,106.23,16.47c1.41-1.45,2.71-3,3.94-4.61c8.55-11.27,58.26-71.45,141.67-67.1c4.5,0.23,9-0.13,13.4-1.08
		c29.53-6.38,134.21-36.26,149.49-141.71c0,0,17.47-82.89-39.73-144.21l-3.27-3.64"/>
	<path class="st7" d="M1257.21,747.51c0,0-57.16-51.1-87.08-67.25c-0.94-0.51-1.87-1.03-2.78-1.6
		c-10.48-6.52-89.33-53.56-186.87-56.11c0,0-103.72,0.67-153.56-33.37c-0.77-0.53-1.54-1.04-2.34-1.52
		c-5.88-3.56-35.26-21.91-67.61-51.92c-15.06-13.97-30.76-30.46-45.04-49.17c0,0-3.67-5.05-6.2-13.29
		c-3.27-10.63-2.68-22.07,1.27-32.47c5.54-14.59,16.57-55.33-23.5-74.81c0,0-51.57-24.68-71.4,27.82
		c-1.72,4.56-2.72,9.36-3.02,14.22c-0.03,0.49-0.06,0.99-0.08,1.51c-0.58,12.34,3.67,24.31,11.24,34.07
		c1.79,2.3,2.96,4.79,1.21,6.12c-3.83,2.91-5.37-1.6-7.36-3.88c-2-2.28-10.79-11.99-24.78-10.05c-13.99,1.94-32.2,5.88-47.27,20.95
		c-15.07,15.07-12.67,67.82,11.99,83.24s55.49,2.4,55.49,2.4s29.46-12.33,45.9,2.4c16.44,14.73,40.08,39.39,40.08,39.39
		s2.24,2.26,5.97,6.38c15.29,16.91,55.56,65.19,68.14,117.57c0.36,1.52,0.77,3.01,1.27,4.49c2.82,8.39,13.19,41.32,14.37,75.03
		c0,0,0.82,112.24,34.52,195.33c1.04,2.57,4.65,11.01,4.65,11.01"/>
	<path class="st7" d="M756.96,535.72c0,0-48.17,18.73-55.51,54.83"/>
	<path class="st8" d="M924.93,1042.26"/>
	<path class="st8" d="M946.58,1155.96c0,0-32.03-52.82-21.68-113.54"/>
	<path class="st9" d="M1171.49,943.51c-2.58,13.94-5.62,50.45,37.27,36.23c3.31-1.1,6.47-2.59,9.46-4.38
		c11.26-6.73,36.59-25.29,38.85-57.04c0,0,5.24-49.4-48.83-20.58c-0.56,0.3-1.14,0.59-1.71,0.87c-3.89,1.88-22.9,12.06-32.38,35.62
		C1172.94,937.22,1172.08,940.34,1171.49,943.51z"/>
	<path class="st10" d="M761.42,598.73c0,0,29.47,34.74,45.47,67.52c0.65,1.34,1.23,2.7,1.76,4.09c3.99,10.47,19.75,37.4,22.47,74.82
		s4.36,54.93,4.27,68.87c-0.01,2.45,0.11,4.89,0.44,7.33c2.18,16.21-0.6,22.45,12.19,83.19c12.79,60.74,22.87,73.52,22.87,73.52"/>
	<path class="st11" d="M774.33,945.88c0,0-169.21,109.04-200.57,150.05c0,0-93.17,83.08,21.01,60.04
		c114.18-23.04,556.62-237.47,894.71-500.54c0,0,112.55-90.43-13.61-61.58c-11.46,2.62-22.67,6.29-33.49,10.9
		c-47.74,20.35-195.95,83.5-195.95,83.5"/>
	<path class="st11" d="M791.39,982.97"/>
	<path class="st11" d="M797.66,978.34"/>
	<path class="st11" d="M786.37,987.04c0,0-123.77,96.55,26.26,41.75c0,0,269.92-99.34,509.01-288.42c0,0,86.32-79.47-46.59-28.77
		l-3.37,1.43"/>
	<path class="st12" d="M673.63,1056.31c0,0-74.66,54.18-68.96,63.48c1.84,3.01,46.89-14.69,49.54-16.22c0,0,1.54-0.56,2.34-0.78
		c10.06-2.8,80.04-22.54,41.95-20.57c-1.19,0.06-2.39,0.23-3.56,0.48c-6.6,1.4-31.38,5.13-12.77-22.56c0.96-1.43,1.8-2.94,2.44-4.54
		C686.34,1051.26,687.58,1044.92,673.63,1056.31z"/>
	<path class="st12" d="M1377.64,657.56c0.03-1.34,134.38-51.75,75.19-3.34c-56.71,46.39-74.15,66.76-56.18,34.6
		c0,0,15.07-20.72-10.79-23.29S1370.46,660.15,1377.64,657.56z"/>
	<path class="st8" d="M1303.78,808.19"/>
	<path class="st8" d="M932.38,945.39c0,0,7.4-14.8,10.54-19.45c45.19-66.96,144.43-156.95,266.32-154.95
		c9.18,0.15,14.39,0.94,14.39,0.94"/>
	<g id="cerchi">
		<circle cx="774.18" cy="945.79" r="6"/>
		<circle cx="786.33" cy="986.85" r="6"/>
		<circle cx="1271.2" cy="713.06" r="6"/>
		<circle cx="1246.09" cy="688.25" r="6"/>
		<circle cx="824.35" cy="994.16" r="9"/>
		<circle cx="1257.03" cy="747.42" r="9"/>
		<circle cx="1324.96" cy="816.42" r="9"/>
		<circle cx="924.66" cy="1042.77" r="8.5"/>
		<circle cx="871.27" cy="1073.82" r="9.05"/>
		<circle cx="932.2" cy="945.27" r="8.5"/>
		<circle cx="1223.75" cy="771.92" r="8.5"/>
		<circle cx="761.44" cy="598.9" r="5"/>
		<circle cx="870.71" cy="978" r="5"/>
	</g>
</g>
<g id="black" class="st0">
	<path class="st13" d="M861.33,1072.44c0,0,45.46,57.56,76.76,83.64c1.91,1.59,3.72,3.28,5.39,5.11
		c10.87,12.01,61.48,62.52,106.23,16.47c1.41-1.45,2.71-3,3.94-4.61c8.55-11.27,58.26-71.45,141.67-67.1c4.5,0.23,9-0.13,13.4-1.08
		c29.53-6.38,134.21-36.26,149.49-141.71c0,0,17.47-82.89-39.73-144.21l-3.27-3.64"/>
	<path class="st13" d="M1247.54,746.63c0,0-57.16-51.1-87.08-67.25c-0.94-0.51-1.87-1.03-2.78-1.6
		c-10.48-6.52-89.33-53.56-186.87-56.11c0,0-103.72,0.67-153.56-33.37c-0.77-0.53-1.54-1.04-2.34-1.52
		c-5.88-3.56-35.26-21.91-67.61-51.92c-15.06-13.97-30.76-30.46-45.04-49.17c0,0-3.67-5.05-6.2-13.29
		c-3.27-10.63-2.68-22.07,1.27-32.47c5.54-14.59,16.57-55.33-23.5-74.81c0,0-51.57-24.68-71.4,27.82
		c-1.72,4.56-2.72,9.36-3.02,14.22c-0.03,0.49-0.06,0.99-0.08,1.51c-0.58,12.34,3.67,24.31,11.24,34.07
		c1.79,2.3,2.96,4.79,1.21,6.12c-3.83,2.91-5.37-1.6-7.36-3.88c-2-2.28-10.79-11.99-24.78-10.05s-32.2,5.88-47.27,20.95
		c-15.07,15.07-12.67,67.82,11.99,83.24s55.49,2.4,55.49,2.4s29.46-12.33,45.9,2.4c16.44,14.73,40.08,39.39,40.08,39.39
		s2.24,2.26,5.97,6.38c15.29,16.91,55.56,65.19,68.14,117.57c0.36,1.52,0.77,3.01,1.27,4.49c2.82,8.39,13.19,41.32,14.37,75.03
		c0,0,0.82,112.24,34.52,195.33c1.04,2.57,4.65,11.01,4.65,11.01"/>
	<path class="st13" d="M747.3,534.85c0,0-48.17,18.73-55.51,54.83"/>
	<path class="st14" d="M915.27,1041.39"/>
	<path class="st13" d="M936.92,1155.09c0,0-32.03-52.82-21.68-113.54"/>
	<path class="st15" d="M1161.83,942.63c-2.58,13.94-5.62,50.45,37.27,36.23c3.31-1.1,6.47-2.59,9.46-4.38
		c11.26-6.73,36.59-25.29,38.85-57.04c0,0,5.24-49.4-48.83-20.58c-0.56,0.3-1.14,0.59-1.71,0.87c-3.89,1.88-22.9,12.06-32.38,35.62
		C1163.28,936.34,1162.41,939.46,1161.83,942.63z"/>
	<path class="st13" d="M751.75,597.86c0,0,29.47,34.74,45.47,67.52c0.65,1.34,1.23,2.7,1.76,4.09c3.99,10.47,19.75,37.4,22.47,74.82
		s4.36,54.93,4.27,68.87c-0.01,2.45,0.11,4.89,0.44,7.33c2.18,16.21-0.6,22.45,12.19,83.19c12.79,60.74,22.87,73.52,22.87,73.52"/>
	<path class="st13" d="M764.67,945c0,0-169.21,109.04-200.57,150.05c0,0-93.17,83.08,21.01,60.04
		c114.18-23.04,556.62-237.47,894.71-500.54c0,0,112.55-90.43-13.61-61.58c-11.46,2.62-22.67,6.29-33.49,10.9
		c-47.74,20.35-195.95,83.5-195.95,83.5"/>
	<path class="st16" d="M781.73,982.09"/>
	<path class="st16" d="M787.99,977.47"/>
	<path class="st13" d="M776.7,986.17c0,0-123.77,96.55,26.26,41.75c0,0,269.92-99.34,509.01-288.42c0,0,86.32-79.47-46.59-28.77
		l-3.37,1.43"/>
	<path class="st17" d="M662.98,1053.49c0,0-75.87,55.04-68.96,63.48c2.26,2.76,28.33-7.89,49.54-16.22c0.77-0.3,1.54-0.56,2.34-0.78
		c10.06-2.8,80.04-22.54,41.95-20.57c-1.19,0.06-2.39,0.23-3.56,0.48c-6.6,1.4-31.38,5.13-12.77-22.56c0.96-1.43,1.8-2.94,2.44-4.54
		C675.69,1048.44,676.94,1042.1,662.98,1053.49z"/>
	<path class="st18" d="M1367.97,656.69c0.03-1.34,134.38-51.75,75.19-3.34c-56.71,46.39-74.15,66.76-56.18,34.6
		c0,0,15.07-20.72-10.79-23.29S1360.8,659.28,1367.97,656.69z"/>
	<path class="st14" d="M1294.11,807.32"/>
	<path class="st13" d="M922.71,944.52c0,0,7.4-14.8,10.54-19.45c45.19-66.96,144.43-156.95,266.32-154.95
		c9.18,0.15,14.39,0.94,14.39,0.94"/>
	<circle class="st19" cx="764.69" cy="944.99" r="10"/>
	<circle class="st19" cx="776.84" cy="986.04" r="10"/>
	<circle class="st19" cx="1261.72" cy="712.26" r="10"/>
	<circle class="st19" cx="1236.6" cy="687.45" r="10"/>
	<circle class="st19" cx="814.86" cy="993.36" r="10"/>
	<circle class="st19" cx="1247.54" cy="746.62" r="10"/>
	<circle class="st19" cx="1315.48" cy="815.62" r="10"/>
	<circle class="st19" cx="915.17" cy="1041.97" r="8.5"/>
	<circle class="st19" cx="861.79" cy="1073.02" r="9.05"/>
	<circle class="st19" cx="922.71" cy="944.47" r="8.5"/>
	<circle class="st19" cx="1214.26" cy="771.12" r="10"/>
	<circle class="st19" cx="751.95" cy="598.1" r="10"/>
	<circle class="st19" cx="861.23" cy="977.2" r="10"/>
</g>
</svg>
