<svg width="1880" height="1880" viewBox="0 0 1880 1880" fill="none" xmlns="http://www.w3.org/2000/svg">
<circle cx="937.5" cy="940.5" r="469.5" stroke="white" stroke-width="40"/>
<path d="M734.5 793C744.608 760.083 767.615 734.914 790.497 716.866C816.456 696.389 852.559 712.244 862.822 743.674L881.824 801.867C887.645 819.692 881.801 839.259 867.158 850.974L844.744 868.905C835.28 876.476 831.453 889.21 835.734 900.55C871.7 995.821 926.244 1046.11 963.048 1067.17C976.727 1074.99 993.297 1071.46 1005.43 1061.4L1037.68 1034.69C1046.65 1027.26 1059.56 1027.01 1068.81 1034.08L1136.59 1085.9C1148.24 1094.8 1151.6 1111.17 1142.93 1122.99C1096.08 1186.9 1042.28 1187.65 986 1164.5C810.5 1083 717.465 848.471 734.5 793Z" fill="white" stroke="white"/>
</svg>
