<svg width="7860" height="1288" viewBox="0 0 7860 1288" fill="none" xmlns="http://www.w3.org/2000/svg">
<path d="M442.085 1004.3C457.734 1023.39 500.047 1069.6 530.938 1101.47M995.065 689.807C1006.77 700.673 1020.15 720.107 1025.38 728.465C1091.44 861.367 1018.06 962.158 973.113 995.941C868.543 1059.49 819.507 1033.22 759.866 1058.63C727.986 1072.21 691.679 1100.52 677.284 1124.45C642.161 1175.44 586.689 1151.27 563.344 1132.81C551.42 1122.92 546.127 1117.14 530.938 1101.47M530.938 1101.47C512 1081.66 514.213 1084 487.5 1055.39M385.637 907.131C369.957 865.686 338.807 766.288 339.643 700.255C340.688 617.714 313.51 497.559 259.153 442.183C204.795 386.807 190.161 371.135 184.934 364.866C180.968 360.109 161.356 349.337 139.338 352.176C124.402 354.101 110.526 362.181 95.4689 361.911C69.4629 361.445 38.6134 350.156 35.4519 308.445C30.2253 239.487 72.0385 234.262 73.0838 234.262C74.1291 234.262 104.444 225.904 120.124 238.442C135.804 250.98 136.849 236.352 133.713 232.173C130.577 227.994 109.67 194.559 135.804 154.856C159.847 118.327 234.325 129.557 245.27 173.897C247.24 181.879 247.774 190.282 247.715 198.503C247.641 208.856 245.738 224.335 239.291 243.666C226.747 281.28 311.419 359.642 326.054 370.09C340.688 380.538 384.592 431.735 477.626 442.183C570.661 452.631 751.503 448.452 910.393 604.131M336.507 899.817L321.872 847.576C250.093 896.682 98.3808 1004.09 65.7665 1040.87C24.9986 1086.84 13.5 1131.77 118.033 1101.47C222.566 1071.17 862.308 776.527 1207.27 482.931C1251.17 442.879 1302.39 375.732 1156.05 427.555C1009.7 479.379 920.149 520.893 893.668 535.172L933.39 566.517C989.49 542.486 1077.65 516.366 981.475 604.131C861.263 713.838 418.757 935.716 339.643 957.282C282.15 972.955 249.745 977.134 336.507 899.817Z" stroke="#C03F2E" stroke-width="21" stroke-linecap="round"/>
<path d="M543.722 843.709L514.486 857.294C609.713 635.758 814.507 618.69 905 637.848L878.896 654.568C674.242 647.88 570.174 777.876 543.722 843.709Z" fill="#C03F2E"/>
<path d="M498.824 954.478L521.795 944.028C516.133 982.023 515.188 1068.81 542.924 1101.86L546.855 1106C545.485 1104.74 544.175 1103.36 542.924 1101.86L506.133 1063.16C500.564 1049.57 491.306 1008.82 498.824 954.478Z" fill="#C03F2E"/>
<path d="M514.486 857.294L543.722 843.709C570.174 777.876 674.242 647.88 878.896 654.568L905 637.848C814.507 618.69 609.713 635.758 514.486 857.294ZM498.824 954.478L521.795 944.028C515.878 983.737 515.112 1076.74 546.855 1106L506.133 1063.16C500.564 1049.57 491.306 1008.82 498.824 954.478Z" stroke="#C03F2E"/>
<path d="M972.302 683.836L990.082 699.513L1011 691.152L1001.5 681L990.082 670.249L972.302 683.836Z" fill="#C03F2E"/>
<path d="M419.02 995.285L458 1038.5L474.452 1026.64L439.938 984.834L419.02 995.285Z" fill="#C03F2E"/>
<path d="M379.275 923.171L373 902.268L388.5 884L399.148 913.765L379.275 923.171Z" fill="#C03F2E"/>
<path d="M916.869 628.444L902.226 610.677L895.5 576L918 596.5L933.603 614.857L916.869 628.444Z" fill="#C03F2E"/>
<path d="M972.302 683.836L990.082 699.513L1011 691.152L1001.5 681L990.082 670.249L972.302 683.836Z" stroke="#C03F2E"/>
<path d="M419.02 995.285L458 1038.5L474.452 1026.64L439.938 984.834L419.02 995.285Z" stroke="#C03F2E"/>
<path d="M379.275 923.171L373 902.268L388.5 884L399.148 913.765L379.275 923.171Z" stroke="#C03F2E"/>
<path d="M916.869 628.444L902.226 610.677L895.5 576L918 596.5L933.603 614.857L916.869 628.444Z" stroke="#C03F2E"/>
<path d="M901.899 786.201C909.605 792.695 912.991 803.938 911.13 817.881C909.279 831.757 902.259 847.564 890.27 861.793C878.28 876.022 863.892 885.621 850.532 889.799C837.106 893.997 825.452 892.567 817.745 886.074C810.039 879.58 806.653 868.337 808.514 854.393C810.365 840.518 817.384 824.711 829.374 810.482C841.364 796.252 855.752 786.654 869.112 782.476C882.538 778.278 894.192 779.708 901.899 786.201Z" stroke="#C03F2E" stroke-width="10"/>
<path d="M309 427C460.96 635.066 350.92 597.426 440 886" stroke="#C03F2E" stroke-width="10" stroke-linecap="round"/>
<path d="M233 418C237.867 398.821 259.28 358.369 306 350" stroke="#C03F2E" stroke-width="11"/>
<path d="M131.791 1051.12C139.826 1063.85 194.311 1040.5 220.55 1027.23C226.039 1024.18 236.014 1016.48 231.996 1010.11C227.978 1003.75 215.995 1008.27 210.505 1011.32C206.97 1013.55 199.005 1016.6 195.434 1010.94C192.309 1005.99 198.227 999.703 201.577 997.176C206.881 993.828 216.372 985.364 211.908 978.293C207.444 971.221 196.464 977.328 191.533 981.266C168.271 999.247 123.756 1038.39 131.791 1051.12Z" fill="#C03F2E" stroke="#C03F2E"/>
<path d="M1165.69 469.605C1158.51 456.376 1102.61 476.099 1075.56 487.613C1069.88 490.3 1059.42 497.326 1063.01 503.94C1066.6 510.555 1078.85 506.836 1084.53 504.15C1088.21 502.155 1096.36 499.635 1099.55 505.514C1102.34 510.659 1096.02 516.547 1092.51 518.849C1087 521.841 1076.97 529.663 1080.96 537.013C1084.95 544.362 1096.31 538.99 1101.49 535.385C1125.88 518.97 1172.87 482.834 1165.69 469.605Z" fill="#C03F2E" stroke="#C03F2E"/>
<path d="M2651.71 610.57C2643.05 660.049 2608.88 684.789 2549.19 684.789H2274.58L2189.23 926H2022.24L2108.52 684.789H1951.73C1863.91 900.333 1725.52 1008.26 1536.57 1008.57C1485.54 1008.57 1443.64 998.518 1410.86 978.417C1371.28 954.296 1351.49 918.114 1351.49 869.872C1351.49 832.144 1364.17 794.107 1389.52 755.761C1453.54 658.967 1571.21 610.57 1742.53 610.57H1810.25L1953.59 202.831H2120.12L1974.46 610.57H2134.03L2252.78 273.339H2420.24L2300.56 610.57H2651.71ZM1783.81 684.789H1770.36C1709.44 684.789 1654.7 700.406 1606.15 731.64C1550.18 767.512 1522.19 814.208 1522.19 871.728C1522.19 911.62 1539.97 931.566 1575.54 931.566C1620.07 931.566 1664.13 900.333 1707.74 837.865C1740.21 791.169 1765.57 740.144 1783.81 684.789ZM3020.95 851.781C3006.1 901.26 2968.22 926 2907.3 926H2731.49C2681.39 926 2656.35 909.919 2656.35 877.758C2622.64 916.104 2581.2 935.277 2532.03 935.277C2495.85 935.277 2466.47 924.145 2443.89 901.879C2421.32 879.613 2410.03 850.544 2410.03 814.672C2410.03 750.04 2434.77 699.014 2484.25 661.596C2529.09 627.579 2584.6 610.57 2650.78 610.57H2915.65L2828.44 851.781H3020.95ZM2721.75 684.789H2619.24L2586.77 792.87C2584.91 799.674 2583.98 805.858 2583.98 811.425C2583.98 838.329 2610.27 851.781 2662.84 851.781L2721.75 684.789ZM3929.2 851.781C3920.23 901.26 3885.13 926 3823.9 926H3635.57C3620.73 926 3606.96 919.97 3594.29 907.909C3581.92 895.539 3575.73 881.623 3575.73 866.161C3575.73 861.213 3576.35 856.42 3577.59 851.781C3584.39 828.897 3594.59 795.653 3608.2 752.05L3451.41 883.324C3411.83 916.104 3377.97 932.494 3349.83 932.494C3307.77 932.494 3286.74 916.723 3286.74 885.18C3286.74 874.975 3289.06 863.842 3293.7 851.781L3330.81 752.05L3146.19 906.054C3130.42 919.351 3110.78 926 3087.28 926H2992.65L3103.51 610.57H3270.97L3218.55 759.008L3360.96 642.113C3396.52 612.735 3436.42 598.046 3480.64 598.046C3517.13 598.046 3535.37 612.117 3535.37 640.258C3535.37 648.298 3533.67 657.112 3530.27 666.698L3496.87 759.008L3635.57 641.186C3669.28 612.426 3706.7 598.046 3747.83 598.046C3786.79 598.046 3806.27 614.59 3806.27 647.68C3806.27 658.812 3803.8 671.182 3798.85 684.789L3739.01 851.781H3929.2ZM5127.83 428.271C5127.83 519.807 5064.59 598.355 4938.11 663.915C4853.68 708.137 4753.18 741.69 4636.59 764.574L4580 926H4410.69L4580 450.072H4747.92L4668.14 673.192C4728.13 659.586 4781.32 638.402 4827.71 609.643C4892.34 569.132 4925.89 521.972 4928.37 468.163C4929.91 433.528 4918.32 410.798 4893.58 399.975C4878.73 393.48 4851.98 390.233 4813.33 390.233H4339.26L4411.62 273.339H4889.4C4959.29 273.339 5012.64 281.998 5049.44 299.315C5101.7 323.746 5127.83 366.731 5127.83 428.271ZM5410.79 851.781C5403.06 878.995 5385.28 899.096 5357.44 912.084C5337.96 921.361 5317.09 926 5294.82 926H5116.23C5070.47 926 5047.58 910.383 5047.58 879.149C5047.58 871.109 5049.28 861.986 5052.68 851.781L5224.78 366.576H5388.99L5215.96 851.781H5410.79ZM6006.39 851.781C5991.55 901.26 5953.67 926 5892.75 926H5716.94C5666.84 926 5641.79 909.919 5641.79 877.758C5608.09 916.104 5566.65 935.277 5517.48 935.277C5481.3 935.277 5451.92 924.145 5429.34 901.879C5406.77 879.613 5395.48 850.544 5395.48 814.672C5395.48 750.04 5420.22 699.014 5469.7 661.596C5514.54 627.579 5570.05 610.57 5636.23 610.57H5901.1L5813.89 851.781H6006.39ZM5707.2 684.789H5604.69L5572.21 792.87C5570.36 799.674 5569.43 805.858 5569.43 811.425C5569.43 838.329 5595.72 851.781 5648.29 851.781L5707.2 684.789ZM6640.96 851.781C6632.92 878.995 6615.14 899.096 6587.62 912.084C6568.14 921.361 6547.26 926 6525 926H6339.92C6297.55 926 6276.37 912.084 6276.37 884.252C6276.37 874.975 6278.53 864.151 6282.86 851.781L6318.11 752.05L6158.54 887.035C6121.12 913.012 6090.35 926 6066.23 926H5980.88L6091.75 610.57H6259.2L6206.79 759.008L6348.26 643.041C6386.61 611.807 6428.2 596.809 6473.04 598.046C6503.35 599.283 6518.5 615.364 6518.5 646.288C6518.5 657.73 6516.03 670.564 6511.08 684.789L6451.24 851.781H6640.96ZM7218.48 851.781C7211.99 875.593 7197.14 894.302 7173.95 907.909C7153.23 919.97 7129.57 926 7102.98 926H6844.6C6694.31 926 6619.16 880.696 6619.16 790.087C6619.16 731.949 6644.83 686.335 6696.17 653.246C6740.39 624.796 6792.96 610.57 6853.88 610.57H6921.14C6960.41 610.57 6994.9 616.601 7024.58 628.661C7064.17 644.742 7084.89 669.172 7086.74 701.952C7088.29 735.041 7072.36 762.564 7038.96 784.521H6885.42L6935.52 684.789H6837.64L6799.61 796.581C6797.44 803.075 6796.36 808.951 6796.36 814.208C6796.36 839.257 6816.46 851.781 6856.66 851.781H7218.48ZM7628.54 851.781C7614 901.26 7575.35 926 7512.57 926H7276C7230.23 926 7207.35 909.919 7207.35 877.758C7207.35 869.717 7209.05 861.059 7212.45 851.781L7271.36 684.789H7195.29L7224.51 610.57C7278.63 596.654 7318.83 578.873 7345.12 557.226C7374.8 532.795 7406.5 488.573 7440.21 424.56H7530.66L7465.26 610.57H7584.93C7565.76 660.049 7526.8 684.789 7468.04 684.789H7437.42L7379.44 851.781H7628.54Z" fill="#C03F2E"/>
<path d="M2651.71 610.57C2643.05 660.049 2608.88 684.789 2549.19 684.789H2274.58L2189.23 926H2022.24L2108.52 684.789H1951.73C1863.91 900.333 1725.52 1008.26 1536.57 1008.57C1485.54 1008.57 1443.64 998.518 1410.86 978.417C1371.28 954.296 1351.49 918.114 1351.49 869.872C1351.49 832.144 1364.17 794.107 1389.52 755.761C1453.54 658.967 1571.21 610.57 1742.53 610.57H1810.25L1953.59 202.831H2120.12L1974.46 610.57H2134.03L2252.78 273.339H2420.24L2300.56 610.57H2651.71ZM1783.81 684.789H1770.36C1709.44 684.789 1654.7 700.406 1606.15 731.64C1550.18 767.512 1522.19 814.208 1522.19 871.728C1522.19 911.62 1539.97 931.566 1575.54 931.566C1620.07 931.566 1664.13 900.333 1707.74 837.865C1740.21 791.169 1765.57 740.144 1783.81 684.789ZM3020.95 851.781C3006.1 901.26 2968.22 926 2907.3 926H2731.49C2681.39 926 2656.35 909.919 2656.35 877.758C2622.64 916.104 2581.2 935.277 2532.03 935.277C2495.85 935.277 2466.47 924.145 2443.89 901.879C2421.32 879.613 2410.03 850.544 2410.03 814.672C2410.03 750.04 2434.77 699.014 2484.25 661.596C2529.09 627.579 2584.6 610.57 2650.78 610.57H2915.65L2828.44 851.781H3020.95ZM2721.75 684.789H2619.24L2586.77 792.87C2584.91 799.674 2583.98 805.858 2583.98 811.425C2583.98 838.329 2610.27 851.781 2662.84 851.781L2721.75 684.789ZM3929.2 851.781C3920.23 901.26 3885.13 926 3823.9 926H3635.57C3620.73 926 3606.96 919.97 3594.29 907.909C3581.92 895.539 3575.73 881.623 3575.73 866.161C3575.73 861.213 3576.35 856.42 3577.59 851.781C3584.39 828.897 3594.59 795.653 3608.2 752.05L3451.41 883.324C3411.83 916.104 3377.97 932.494 3349.83 932.494C3307.77 932.494 3286.74 916.723 3286.74 885.18C3286.74 874.975 3289.06 863.842 3293.7 851.781L3330.81 752.05L3146.19 906.054C3130.42 919.351 3110.78 926 3087.28 926H2992.65L3103.51 610.57H3270.97L3218.55 759.008L3360.96 642.113C3396.52 612.735 3436.42 598.046 3480.64 598.046C3517.13 598.046 3535.37 612.117 3535.37 640.258C3535.37 648.298 3533.67 657.112 3530.27 666.698L3496.87 759.008L3635.57 641.186C3669.28 612.426 3706.7 598.046 3747.83 598.046C3786.79 598.046 3806.27 614.59 3806.27 647.68C3806.27 658.812 3803.8 671.182 3798.85 684.789L3739.01 851.781H3929.2ZM5127.83 428.271C5127.83 519.807 5064.59 598.355 4938.11 663.915C4853.68 708.137 4753.18 741.69 4636.59 764.574L4580 926H4410.69L4580 450.072H4747.92L4668.14 673.192C4728.13 659.586 4781.32 638.402 4827.71 609.643C4892.34 569.132 4925.89 521.972 4928.37 468.163C4929.91 433.528 4918.32 410.798 4893.58 399.975C4878.73 393.48 4851.98 390.233 4813.33 390.233H4339.26L4411.62 273.339H4889.4C4959.29 273.339 5012.64 281.998 5049.44 299.315C5101.7 323.746 5127.83 366.731 5127.83 428.271ZM5410.79 851.781C5403.06 878.995 5385.28 899.096 5357.44 912.084C5337.96 921.361 5317.09 926 5294.82 926H5116.23C5070.47 926 5047.58 910.383 5047.58 879.149C5047.58 871.109 5049.28 861.986 5052.68 851.781L5224.78 366.576H5388.99L5215.96 851.781H5410.79ZM6006.39 851.781C5991.55 901.26 5953.67 926 5892.75 926H5716.94C5666.84 926 5641.79 909.919 5641.79 877.758C5608.09 916.104 5566.65 935.277 5517.48 935.277C5481.3 935.277 5451.92 924.145 5429.34 901.879C5406.77 879.613 5395.48 850.544 5395.48 814.672C5395.48 750.04 5420.22 699.014 5469.7 661.596C5514.54 627.579 5570.05 610.57 5636.23 610.57H5901.1L5813.89 851.781H6006.39ZM5707.2 684.789H5604.69L5572.21 792.87C5570.36 799.674 5569.43 805.858 5569.43 811.425C5569.43 838.329 5595.72 851.781 5648.29 851.781L5707.2 684.789ZM6640.96 851.781C6632.92 878.995 6615.14 899.096 6587.62 912.084C6568.14 921.361 6547.26 926 6525 926H6339.92C6297.55 926 6276.37 912.084 6276.37 884.252C6276.37 874.975 6278.53 864.151 6282.86 851.781L6318.11 752.05L6158.54 887.035C6121.12 913.012 6090.35 926 6066.23 926H5980.88L6091.75 610.57H6259.2L6206.79 759.008L6348.26 643.041C6386.61 611.807 6428.2 596.809 6473.04 598.046C6503.35 599.283 6518.5 615.364 6518.5 646.288C6518.5 657.73 6516.03 670.564 6511.08 684.789L6451.24 851.781H6640.96ZM7218.48 851.781C7211.99 875.593 7197.14 894.302 7173.95 907.909C7153.23 919.97 7129.57 926 7102.98 926H6844.6C6694.31 926 6619.16 880.696 6619.16 790.087C6619.16 731.949 6644.83 686.335 6696.17 653.246C6740.39 624.796 6792.96 610.57 6853.88 610.57H6921.14C6960.41 610.57 6994.9 616.601 7024.58 628.661C7064.17 644.742 7084.89 669.172 7086.74 701.952C7088.29 735.041 7072.36 762.564 7038.96 784.521H6885.42L6935.52 684.789H6837.64L6799.61 796.581C6797.44 803.075 6796.36 808.951 6796.36 814.208C6796.36 839.257 6816.46 851.781 6856.66 851.781H7218.48ZM7628.54 851.781C7614 901.26 7575.35 926 7512.57 926H7276C7230.23 926 7207.35 909.919 7207.35 877.758C7207.35 869.717 7209.05 861.059 7212.45 851.781L7271.36 684.789H7195.29L7224.51 610.57C7278.63 596.654 7318.83 578.873 7345.12 557.226C7374.8 532.795 7406.5 488.573 7440.21 424.56H7530.66L7465.26 610.57H7584.93C7565.76 660.049 7526.8 684.789 7468.04 684.789H7437.42L7379.44 851.781H7628.54Z" fill="#C03F2E"/>
</svg>
