<svg width="1880" height="1880" viewBox="0 0 1880 1880" fill="none" xmlns="http://www.w3.org/2000/svg">
<circle cx="681" cy="1186" r="96" stroke="white" stroke-width="50"/>
<circle cx="1300" cy="1186" r="96" stroke="white" stroke-width="50"/>
<path d="M448.5 1096C454 1126.5 480 1187.5 540 1187.5H588L591.5 1216L606.5 1245L628.5 1264.5L661 1275.5L699.5 1283L740.5 1260.5L768.5 1231L783.5 1187.5H1205.5L1208 1220.5L1228 1252L1258.5 1272L1297 1284L1335 1276.5L1369 1254L1387.5 1228.5L1397 1187.5H1488C1512.33 1184.5 1561 1165.7 1561 1114.5C1561 1073.4 1561 989.814 1561 931.452C1561 907.456 1551.47 884.468 1534.5 867.5V867.5M383.5 607.5H1157M308.5 775.5H658M375.5 930H723M1157 607.5H1183.37C1241.72 607.5 1297.68 630.679 1338.94 671.937L1534.5 867.5M1157 607.5V845.5C1158.67 852.833 1165.4 867.5 1179 867.5C1192.6 867.5 1421.67 867.5 1534.5 867.5" stroke="white" stroke-width="40" stroke-linecap="round"/>
</svg>
